<?xml version="1.0" encoding="UTF-8" standalone="no"?>
<svg
   xmlns:dc="http://purl.org/dc/elements/1.1/"
   xmlns:cc="http://creativecommons.org/ns#"
   xmlns:rdf="http://www.w3.org/1999/02/22-rdf-syntax-ns#"
   xmlns:svg="http://www.w3.org/2000/svg"
   xmlns="http://www.w3.org/2000/svg"
   xmlns:sodipodi="http://sodipodi.sourceforge.net/DTD/sodipodi-0.dtd"
   xmlns:inkscape="http://www.inkscape.org/namespaces/inkscape"
   width="118"
   height="126"
   viewBox="0 0 118 126"
   fill="none"
   version="1.1"
   id="svg4"
   sodipodi:docname="4c_icon_white.svg"
   inkscape:version="0.92.4 5da689c313, 2019-01-14">
  <metadata
     id="metadata10">
    <rdf:RDF>
      <cc:Work
         rdf:about="">
        <dc:format>image/svg+xml</dc:format>
        <dc:type
           rdf:resource="http://purl.org/dc/dcmitype/StillImage" />
      </cc:Work>
    </rdf:RDF>
  </metadata>
  <defs
     id="defs8" />
  <sodipodi:namedview
     pagecolor="#ffffff"
     bordercolor="#666666"
     borderopacity="1"
     objecttolerance="10"
     gridtolerance="10"
     guidetolerance="10"
     inkscape:pageopacity="0"
     inkscape:pageshadow="2"
     inkscape:window-width="1600"
     inkscape:window-height="836"
     id="namedview6"
     showgrid="false"
     inkscape:zoom="1.8730159"
     inkscape:cx="-38.169492"
     inkscape:cy="74.211864"
     inkscape:window-x="0"
     inkscape:window-y="27"
     inkscape:window-maximized="1"
     inkscape:current-layer="svg4" />
  <path
     d="M56.0526 125.826C52.5635 124.886 48.6729 121.327 47.274 117.797C46.1971 115.079 46.2083 115.131 46.106 112.281C46.0338 110.271 45.7419 109.948 43.0009 108.839C41.3369 108.166 38.984 107.606 37.7722 107.595C36.0987 107.58 35.3849 107.197 34.8033 106.001C34.3822 105.134 32.2311 103.019 30.0231 101.299L26.0086 98.1728L24.9711 100.572C20.9204 109.939 8.00805 111.014 2.28275 102.46C0.274975 99.4609 -0.428455 93.6375 0.764817 89.8943C2.30474 85.0636 9.48084 80.296 14.1452 81.0048L15.7922 81.255L14.7041 76.9408C14.0679 74.4183 13.6009 70.0225 13.5794 66.356C13.547 60.8228 13.3928 59.9884 12.2688 59.2617C10.6153 58.1926 10.6326 55.4896 12.3008 54.28C13.5509 53.3734 13.5034 53.3135 11.1861 52.8747C4.58726 51.6249 0.189255 46.3677 0.00565825 39.5099C-0.329325 26.9974 14.2888 20.8486 22.8002 29.9219C24.5744 31.8132 25.1596 32.1034 25.9059 31.4622C26.5128 30.9407 26.7118 29.947 26.4911 28.5393C26.0625 25.8048 27.408 24.5419 30.2564 25.0052C31.8399 25.2628 33.0616 24.8657 35.407 23.3309C37.0981 22.2244 40.2509 20.6556 42.4133 19.8448L46.3448 18.3706L46.2567 14.5061C45.9652 1.72521 59.7015 -4.68609 68.8524 3.95975C71.1895 6.16786 72.3361 9.56901 72.4003 14.4836L72.4591 18.985L75.9623 20.3285C77.889 21.0675 80.7501 21.7125 82.3203 21.7619C84.6357 21.8347 85.2192 22.1009 85.4081 23.1705C85.5362 23.8959 87.4043 26.1605 89.5595 28.203L93.478 31.9167L96.1183 29.4071C98.8033 26.8549 102.108 25.4888 105.614 25.4821C108.726 25.4762 113.81 28.4845 115.858 31.5435C117.481 33.9685 117.682 34.8287 117.682 39.3734C117.682 44.0851 117.531 44.6713 115.734 46.9704C112.974 50.5008 111.153 51.7346 107.322 52.671C105.216 53.1858 104.077 53.7831 104.26 54.2769C104.42 54.7093 104.747 56.8509 104.986 59.0361C105.271 61.6493 105.829 63.3923 106.614 64.1285C108.119 65.5378 108.14 67.3386 106.67 68.8601C106.044 69.5086 105.178 72.0211 104.747 74.4434C104.316 76.8658 103.795 79.3025 103.589 79.8585C103.297 80.6449 103.696 80.8693 105.387 80.8693C108.979 80.8693 114.062 83.9309 116.162 87.3597C117.71 89.8863 118 91.0466 118 94.717C118 100.636 115.669 104.61 110.828 106.943C106.53 109.015 103.172 109.001 99.089 106.894C96.0787 105.341 92.5226 101.343 92.5226 99.5106C92.5226 99.1033 91.3761 99.8356 89.9749 101.138C88.4587 102.547 87.4271 104.097 87.4271 104.965C87.4271 107.087 86.0072 107.983 82.8678 107.843C81.1422 107.765 78.7852 108.305 76.5992 109.277C74.6725 110.135 73.0469 110.846 72.9869 110.858C72.9268 110.869 72.7185 112.28 72.524 113.993C72.3294 115.705 71.8053 117.775 71.3593 118.592C70.2226 120.674 67.0305 123.909 65.1062 124.929C63.5913 125.731 57.8225 126.303 56.0526 125.826ZM78.0323 107.089C80.1235 106.174 81.0578 105.38 81.0578 104.518C81.0578 103.832 81.3896 102.721 81.7952 102.049C82.9271 100.173 81.7304 92.4091 80.3092 92.4091C79.7223 92.4091 76.7587 94.5871 73.7233 97.249L68.2044 102.089L69.4325 103.513C70.108 104.297 71.0315 105.91 71.4847 107.098C72.3986 109.493 72.5411 109.493 78.0323 107.089ZM47.9033 105.996C48.5995 104.583 49.675 102.903 50.2933 102.263C51.1054 101.422 51.1554 101.203 50.4735 101.472C49.9543 101.678 47.441 102.376 44.8885 103.024C39.4622 104.401 39.1121 105.46 43.4786 107.29C45.055 107.951 46.4106 108.508 46.4911 108.528C46.5716 108.548 47.207 107.409 47.9033 105.996ZM48.4149 100.288C49.5534 99.7998 50.4799 99.0142 50.4739 98.5423C50.461 97.5332 35.9907 87.2862 35.2489 87.7609C34.6315 88.1559 38.1824 101.144 39.2231 102.298C39.9967 103.155 43.534 102.382 48.4149 100.288ZM35.8114 102C36.6023 101.482 36.6264 100.812 35.9711 97.5589C34.1551 88.5455 33.6593 87.858 29.1476 88.0984C25.559 88.2897 25.0004 88.6772 25.6731 90.5088C26.0076 91.4198 26.2814 92.9816 26.2814 93.9794C26.2814 95.4027 27.1388 96.5252 30.2622 99.1905C34.6537 102.938 34.4987 102.859 35.8114 102ZM89.4703 99.5288C91.531 97.4456 91.8857 96.6679 91.8857 94.2323C91.8857 92.6622 92.2711 90.4226 92.7421 89.2554L93.5986 87.1332L88.6139 88.1226C82.327 89.3705 81.7065 90.3807 83.3049 96.7665C84.8144 102.798 85.8 103.239 89.4703 99.5288ZM71.4995 97.0294L75.5986 92.7476L67.6297 95.5457L59.6608 98.3438L62.6779 99.3329C64.3374 99.877 65.9033 100.545 66.1578 100.817C66.952 101.665 67.2927 101.424 71.4995 97.0294ZM61.9497 96.3158C67.6227 94.1834 74.7395 90.8734 74.2622 90.5893C73.9711 90.4161 72.6666 90.0752 71.3633 89.8318C70.0599 89.5884 68.079 88.5926 66.9613 87.6189L64.9291 85.8486L63.5987 87.7582C62.8669 88.8085 60.8917 91.5553 59.2093 93.8622C56.2075 97.9783 56.1838 98.0482 57.9354 97.6052C58.9172 97.3569 60.7236 96.7766 61.9497 96.3158ZM51.7821 92.8285C51.1784 90.5076 50.8413 90.1573 49.0378 89.977L46.9817 89.7714L46.7957 84.661L46.6097 79.5505H44.5109C43.0651 79.5505 41.2562 80.4074 38.6967 82.305C35.2052 84.8934 35.0549 85.114 36.2045 85.9642C41.6513 89.9925 52.1127 96.5851 52.2722 96.0897C52.3812 95.7513 52.1606 94.2838 51.7821 92.8285ZM58.6151 92.2442C64.0906 84.5204 63.9569 84.8581 63.0695 80.9904C62.4916 78.4717 61.9896 77.5722 61.1621 77.5722C60.5443 77.5722 60.0389 78.0173 60.0389 78.5614C60.0389 79.2522 59.3666 79.5505 57.8096 79.5505H55.5804V84.8258C55.5804 89.6615 55.4742 90.1011 54.3065 90.1011C52.937 90.1011 52.7459 91.0899 53.4307 94.6346C53.6497 95.768 54.1958 96.6953 54.6443 96.6953C55.0928 96.6953 56.8797 94.6923 58.6151 92.2442ZM28.3514 86.5305C31.1056 86.0167 31.1348 85.9463 29.5628 83.6088C28.9154 82.6461 25.5872 76.8911 22.1668 70.8199C18.6278 64.5383 15.6651 59.9623 15.2917 60.2013C14.2609 60.8608 15.2081 72.6838 16.6878 77.628C17.627 80.7661 18.3963 82.1628 19.4626 82.6658C20.274 83.0485 21.7819 84.3884 22.8134 85.6433C23.845 86.8982 24.9757 87.7115 25.326 87.4505C25.6763 87.1895 27.0377 86.7755 28.3514 86.5305ZM93.7965 85.3614C95.0226 84.9614 96.6385 84.1413 97.3874 83.5392C98.6257 82.5436 98.6784 82.2315 97.9691 80.0955C97.1131 77.5175 95.2532 74.3158 92.9176 71.3996L91.4067 69.5131L89.7354 73.2926C88.8162 75.3714 88.064 77.7339 88.064 78.5426C88.064 80.9431 86.7244 84.3759 85.063 86.2327L83.5092 87.9694L87.5382 87.0291C89.7541 86.512 92.5704 85.7615 93.7965 85.3614ZM30.9617 77.6538C30.6998 73.8341 30.8195 71.031 31.3064 69.5851C32.5026 66.0324 30.9188 63.7528 25.7324 61.5626C23.2629 60.5197 20.9339 59.9374 20.1327 60.1625C19.112 60.4494 18.6527 60.1951 18.3382 59.1689C17.924 57.8179 16.7273 57.2247 16.7273 58.3704C16.7273 58.6897 18.5567 61.9789 20.7926 65.6797C23.0284 69.3805 26.2529 74.8928 27.9581 77.9292C29.6632 80.9656 31.1269 83.4628 31.2107 83.4785C31.2944 83.4942 31.1824 80.8731 30.9617 77.6538ZM37.1093 81.5287L39.3385 79.586L35.9946 79.5682C32.7 79.5508 32.6507 79.5796 32.6507 81.5287C32.6507 84.1155 34.1411 84.1155 37.1093 81.5287ZM74.0515 81.3012C74.0515 81.1761 73.4782 80.5366 72.7776 79.8802C71.2766 78.4739 71.0487 78.9852 72.5046 80.4925C73.4609 81.4825 74.0515 81.7913 74.0515 81.3012ZM78.7924 80.0632C80.0132 78.2587 80.1714 72.6557 78.9877 73.1431C78.5498 73.3235 76.9018 73.9933 75.3253 74.6317C71.0984 76.3434 70.9962 76.6433 73.7747 79.1831C76.7357 81.8897 77.4696 82.0184 78.7924 80.0632ZM101.978 79.0559C102.299 78.4212 102.889 76.2965 103.29 74.3344C103.959 71.0541 103.911 70.6491 102.692 69.3056C101.963 68.502 100.308 67.6823 99.0143 67.4841C97.7209 67.2858 95.7311 66.9153 94.5926 66.6605C91.8888 66.0555 91.8039 67.5355 94.3502 70.8832C95.3555 72.2048 97.0998 74.8439 98.2265 76.748C100.427 80.4667 101.066 80.86 101.978 79.0559ZM62.5867 66.0325C62.5867 60.411 62.4948 55.8116 62.3825 55.8116C62.2702 55.8116 60.6938 57.7295 58.8793 60.0736C55.8994 63.9235 55.5804 64.6528 55.5804 67.6151C55.5804 70.833 55.6192 70.8984 57.6504 71.1012C59.4219 71.278 59.7517 71.5928 59.9371 73.2839C60.1378 75.1133 60.9491 76.2188 62.109 76.2433C62.3717 76.2486 62.5867 71.654 62.5867 66.0325ZM79.7839 69.8781C79.7839 68.5425 80.0977 68.3393 82.1724 68.3314C86.7232 68.3143 89.0996 66.9397 85.9799 66.1291C85.184 65.9223 82.1524 64.2563 79.2431 62.4269C76.3337 60.5975 73.4022 58.7953 72.7285 58.422C71.5494 57.7687 71.5037 58.0617 71.5037 66.2802V74.817L75.6438 73.1164C79.0861 71.7024 79.7839 71.1566 79.7839 69.8781ZM88.7204 68.7562C88.2699 68.2898 88.0767 68.7901 88.1044 70.3517C88.1424 72.4893 88.182 72.5303 88.7608 71.0312C89.1687 69.9747 89.155 69.2061 88.7204 68.7562ZM46.6633 65.4303V59.8826L44.7729 60.6213C43.3341 61.1836 42.5465 62.2172 41.476 64.9479L40.0694 68.5357L41.5261 69.7569C42.3273 70.4286 43.8109 70.9781 44.823 70.9781H46.6633V65.4303ZM102.172 64.3864L104.081 62.4105L103.331 57.5974L102.581 52.7844L99.6448 51.6913C98.0301 51.0902 96.6736 50.6585 96.6306 50.7321C96.5875 50.8057 95.5062 53.9184 94.2277 57.6491C91.6461 65.1825 91.5126 64.7592 96.7582 65.6704C98.4572 65.9656 99.9411 66.242 100.056 66.2846C100.17 66.3273 101.123 65.4731 102.172 64.3864ZM88.5391 64.2878C88.9405 63.8722 89.1517 62.7594 89.0085 61.815C88.8653 60.8705 88.5736 58.3915 88.3603 56.3061L87.9724 52.5145H83.8781C80.2733 52.5145 79.7839 52.364 79.7839 51.2554C79.7839 50.03 79.6731 50.0336 75.6438 51.3898C68.816 53.6881 69.921 55.5646 82.0132 62.2062C87.7838 65.3757 87.5579 65.3036 88.5391 64.2878ZM93.1894 56.8007C94.3413 52.9926 95.5478 49.8768 95.8706 49.8768C96.1934 49.8768 95.7154 48.9638 94.8085 47.848C93.9016 46.7321 93.1595 45.5729 93.1595 45.2721C93.1595 44.4003 90.3989 45.3432 89.2021 46.6238C88.2035 47.6923 88.1871 48.1732 89.0089 52.296C89.5028 54.7736 90.1024 58.3585 90.3414 60.2626C90.5804 62.1667 90.8477 63.7245 90.9355 63.7245C91.0233 63.7245 92.0375 60.6088 93.1894 56.8007ZM31.5192 61.3791C31.7143 61.1771 31.499 59.4709 31.0409 57.5874C30.5827 55.704 30.014 52.6051 29.7771 50.7011C29.5403 48.797 29.1763 47.2392 28.9682 47.2392C28.7602 47.2392 26.9957 48.5239 25.0471 50.0941C23.0986 51.6643 20.5728 53.5087 19.4343 54.1928C17.1068 55.5912 16.8439 56.3344 18.4789 56.8936C19.092 57.1032 21.8865 58.276 24.689 59.4998C29.8561 61.756 30.8824 62.0384 31.5192 61.3791ZM61.2052 54.2034C61.0892 54.1063 59.7762 54.588 58.2873 55.2739C55.7544 56.4407 55.5804 56.6905 55.5804 59.1592V61.7976L58.4983 58.0888C60.1031 56.0489 61.3212 54.3005 61.2052 54.2034ZM39.2187 50.062C40.861 45.9931 42.2047 42.5354 42.2047 42.3784C42.2047 42.2214 40.8694 42.509 39.2373 43.0175C37.6052 43.526 35.4466 43.9421 34.4403 43.9421C33.2791 43.9421 32.4605 44.3637 32.1995 45.0961C31.9733 45.7307 31.5077 46.4445 31.1649 46.6821C30.491 47.1492 32.2936 57.8407 33.4111 60.0054C33.9959 61.1381 34.1281 61.0876 35.1385 59.346C35.7403 58.3087 37.5764 54.131 39.2187 50.062ZM46.6633 55.5958C46.6633 52.5014 46.5987 52.5379 44.8875 56.597L43.5834 59.6903L45.1234 58.9639C46.379 58.3716 46.6633 57.7497 46.6633 55.5958ZM22.0996 50.5283C25.7141 47.5545 26.9183 46.1657 26.9183 44.9704C26.9183 44.0939 27.3482 42.9318 27.8737 42.3877C28.5509 41.6866 28.8291 39.9769 28.8291 36.5158C28.8291 33.8303 28.6374 31.4345 28.4031 31.192C28.1688 30.9494 27.4761 31.2203 26.8637 31.794C25.9302 32.6687 25.8064 33.605 26.0976 37.5906C26.3877 41.5624 26.2281 42.7839 25.1268 45.0189C23.5992 48.1189 19.9528 51.6538 17.6711 52.2467C16.1934 52.6307 15.3764 54.4927 16.6856 54.4927C17.013 54.4927 19.4493 52.7087 22.0996 50.5283ZM61.8764 51.8551C61.8454 51.6737 60.4162 50.2223 58.7002 48.6296L55.5804 45.7339V49.9989V54.2639L58.7565 53.2243C60.5034 52.6526 61.9073 52.0364 61.8764 51.8551ZM77.1601 49.1458C79.8831 47.9266 79.9409 47.8371 79.5631 45.4269C79.1203 42.6016 77.7599 41.3044 75.2397 41.3044C72.7632 41.3044 71.5037 43.4807 71.5037 47.76C71.5037 51.7346 71.4228 51.7148 77.1601 49.1458ZM63.5218 39.8207C63.9467 38.7885 63.5528 38.6668 59.7886 38.6668H55.5804V41.245C55.5804 43.5363 55.9526 44.156 58.9243 46.8114L62.2682 49.7995L62.6575 45.3871C62.8716 42.9603 63.2605 40.4554 63.5218 39.8207ZM92.0881 38.4136L92.2041 33.2148L88.5383 29.8997C86.5221 28.0764 84.735 26.727 84.5669 26.901C83.9977 27.4903 86.0408 37.6579 87.3707 40.8541C88.5156 43.6058 88.9116 44.0026 90.3322 43.8215C91.9269 43.6181 91.9754 43.469 92.0881 38.4136ZM38.2716 41.6734C40.7851 40.7883 42.8529 40.269 42.8666 40.5194C42.888 40.9098 44.7525 36.816 44.7525 36.3786C44.7525 36.0475 37.335 30.8827 35.3555 29.8356C33.3622 28.7811 33.2101 28.7954 31.36 30.2116L29.4366 31.6837L29.8704 36.6589C30.2891 41.4604 31.1198 43.2036 33.0169 43.2617C33.3934 43.2732 35.758 42.5585 38.2716 41.6734ZM66.3902 35.8642C67.3572 35.0482 68.6704 34.0633 69.3083 33.6754C70.3701 33.03 70.2378 32.7115 67.7456 29.9123L65.0229 26.8542L60.0512 26.9511L55.0796 27.048L53.7377 29.9076C52.0695 33.4625 52.0644 33.3914 53.988 33.3914C55.3327 33.3914 55.5804 33.6992 55.5804 35.3697V37.3479H60.1062C63.8541 37.3479 64.9342 37.0929 66.3902 35.8642ZM83.6628 31.4132C83.3442 28.3384 83.0763 27.7553 81.9027 27.5823C80.9 27.4345 80.0719 28.0582 78.8997 29.8442L77.2812 32.3101L80.6026 33.7191C82.4293 34.494 83.9498 35.1082 83.9813 35.084C84.0128 35.0598 83.8695 33.4079 83.6628 31.4132ZM48.2238 33.3908C49.8861 33.3902 50.4192 32.9242 51.918 30.1614C53.8201 26.6552 54.0752 25.4785 52.9333 25.4785C52.5283 25.4785 51.0731 24.2915 49.6996 22.8408C48.326 21.3901 46.8659 20.2102 46.455 20.2188C45.2415 20.2442 38.741 23.1577 35.4701 25.1423L32.4393 26.9811L36.2074 28.787C38.2798 29.7802 41.1219 31.5009 42.5232 32.6107C44.1165 33.8727 45.2976 34.3969 45.676 34.0101C46.0088 33.6698 47.1553 33.3911 48.2238 33.3908ZM77.6766 29.5998C80.9985 25.387 80.7293 24.0578 76.1896 22.2593C74.2507 21.4911 72.2885 20.8626 71.8292 20.8626C71.37 20.8626 69.9663 21.9268 68.7099 23.2275L66.4256 25.5924L69.4424 29.1539C73.2478 33.6464 74.435 33.7107 77.6766 29.5998Z"
     fill="#D4D4D4"
     id="path2"
     style="fill:#ffffff;fill-opacity:1" />
</svg>
